<?xml version="1.0" encoding="UTF-8" standalone="no"?>
<!DOCTYPE svg PUBLIC "-//W3C//DTD SVG 1.1//EN" "http://www.w3.org/Graphics/SVG/1.1/DTD/svg11.dtd">
<svg width="100%" height="100%" viewBox="0 0 500 500" version="1.1" xmlns="http://www.w3.org/2000/svg" xmlns:xlink="http://www.w3.org/1999/xlink" xml:space="preserve" xmlns:serif="http://www.serif.com/" style="fill-rule:evenodd;clip-rule:evenodd;stroke-linejoin:round;stroke-miterlimit:2;">
    <g transform="matrix(2.50039,0,0,2.50039,-374.952,-375.175)">
        <g transform="matrix(0.377349,0,0,0.412254,161.859,143.997)">
            <path d="M498.392,111.688C498.392,58.145 450.901,14.676 392.405,14.676L74.447,14.676C15.951,14.676 -31.54,58.145 -31.54,111.688L-31.54,402.726C-31.54,456.268 15.951,499.738 74.447,499.738L392.405,499.738C450.901,499.738 498.392,456.268 498.392,402.726L498.392,111.688Z" style="fill:rgb(50,64,140);"/>
        </g>
        <g transform="matrix(1,0,0,1,0.207278,-0.00786659)">
            <g transform="matrix(1.15108e-16,1.87985,-1.46494,8.97021e-17,302.716,196.556)">
                <path d="M31.425,16.887C31.425,13.286 29.524,10.362 27.181,10.362L27.158,10.362C24.816,10.362 22.915,13.286 22.915,16.887L22.915,55.445C22.915,59.046 24.816,61.97 27.158,61.97L27.181,61.97C29.524,61.97 31.425,59.046 31.425,55.445L31.425,16.887Z" style="fill:white;"/>
            </g>
            <g transform="matrix(1.87985,-8.72373e-22,1.49216e-22,1.82889,168.871,183.895)">
                <path d="M31.425,16.887C31.425,13.286 30.684,10.364 27.181,10.362L27.158,10.362C23.655,10.362 22.915,13.286 22.915,16.887L22.915,55.445C22.915,59.046 23.655,61.97 27.158,61.97L27.181,61.97C30.684,61.97 31.425,59.046 31.425,55.445L31.425,16.887Z" style="fill:white;"/>
                <g transform="matrix(1,-4.06577e-38,6.62812e-39,1,31.6997,-4.31097e-37)">
                    <path d="M31.425,16.887C31.425,13.286 30.684,10.364 27.181,10.362L27.158,10.362C23.655,10.362 22.915,13.286 22.915,16.887L22.915,55.445C22.915,59.046 23.655,61.97 27.158,61.97L27.181,61.97C30.684,61.97 31.425,59.046 31.425,55.445L31.425,16.887Z" style="fill:white;"/>
                </g>
            </g>
        </g>
        <g transform="matrix(0.399938,0,0,0.399938,148.107,157.808)">
            <path d="M395.39,50.298L404.673,75.386L429.761,84.67L404.673,93.953L395.39,119.041L386.106,93.953L361.018,84.67L386.106,75.386L395.39,50.298Z" style="fill:white;"/>
        </g>
    </g>
</svg>
